<?xml version="1.0" encoding="UTF-8" standalone="no"?>
<!-- Created with Inkscape (http://www.inkscape.org/) -->

<svg
   width="1920"
   height="1080"
   viewBox="0 0 507.99999 285.75"
   version="1.1"
   id="svg5"
   inkscape:version="1.2.2 (732a01da63, 2022-12-09)"
   sodipodi:docname="background_v1.svg"
   xmlns:inkscape="http://www.inkscape.org/namespaces/inkscape"
   xmlns:sodipodi="http://sodipodi.sourceforge.net/DTD/sodipodi-0.dtd"
   xmlns="http://www.w3.org/2000/svg"
   xmlns:svg="http://www.w3.org/2000/svg">
  <sodipodi:namedview
     id="namedview7"
     pagecolor="#bf1528"
     bordercolor="#000000"
     borderopacity="0.25"
     inkscape:showpageshadow="2"
     inkscape:pageopacity="0"
     inkscape:pagecheckerboard="0"
     inkscape:deskcolor="#d1d1d1"
     inkscape:document-units="mm"
     showgrid="false"
     inkscape:zoom="0.52913967"
     inkscape:cx="978.00265"
     inkscape:cy="639.71768"
     inkscape:window-width="1920"
     inkscape:window-height="1001"
     inkscape:window-x="-9"
     inkscape:window-y="-9"
     inkscape:window-maximized="1"
     inkscape:current-layer="layer1" />
  <defs
     id="defs2" />
  <rect
     style="fill:#bf1528;fill-opacity:1;stroke:none;stroke-width:1.32291667;stroke-linecap:round;stroke-linejoin:round;stroke-dasharray:none;stroke-opacity:1;paint-order:markers stroke fill;stop-color:#000000"
     id="rect8962"
     width="508"
     height="285.75"
     x="0"
     y="0" />
  <g
     inkscape:label="Layer 1"
     inkscape:groupmode="layer"
     id="layer1">
    <path
       id="path2723"
       style="fill:none;stroke:#ffffff;stroke-width:1.32292;stroke-dasharray:none;stroke-opacity:1"
       class="cls-1"
       d="m 25.478226,230.09048 h 48.850673 v 8.49564 H 25.478226 Z" />
    <path
       class="cls-2"
       d="m 74.328899,230.09048 v 6.37175 h -42.47885 a 4.2478822,4.2478309 0 0 1 -4.247869,-4.24786 v -2.12389 z"
       id="path2720"
       style="fill:none;stroke:#ffffff;stroke-width:1.32292;stroke-dasharray:none;stroke-opacity:1" />
    <path
       id="path2717"
       style="fill:none;stroke:#ffffff;stroke-width:1.32292;stroke-dasharray:none;stroke-opacity:1"
       class="cls-1"
       d="m 27.60218,238.58612 h 44.602764 v 26.54897 H 27.60218 Z" />
    <path
       class="cls-2"
       d="m 72.204944,238.58612 v 24.42504 H 36.097958 a 6.3718235,6.3717466 0 0 1 -6.371823,-6.37174 v -18.0533 z"
       id="path2714"
       style="fill:none;stroke:#ffffff;stroke-width:1.32292;stroke-dasharray:none;stroke-opacity:1" />
    <path
       id="path2711"
       style="fill:none;stroke:#ffffff;stroke-width:1.32292;stroke-dasharray:none;stroke-opacity:1"
       class="cls-3"
       d="m 46.717651,238.58612 h 6.371823 v 26.54897 h -6.371823 z" />
    <path
       class="cls-4"
       d="m 53.089474,238.58612 c 0,25.04098 -0.106365,24.42504 0,24.42504 a 4.2478822,4.2478309 0 0 1 -4.247869,-4.24782 v -20.17722 z"
       id="path2708"
       style="fill:none;stroke:#ffffff;stroke-width:1.32292;stroke-dasharray:none;stroke-opacity:1" />
    <path
       class="cls-3"
       d="m 46.770753,232.95775 a 32.676834,32.67644 0 0 0 -5.362968,16.24797 l -3.185912,-5.3098 -4.24787,3.18587 c 0.477878,-5.0443 2.378828,-12.44615 5.819613,-16.39664 3.377046,0.98766 5.830209,0.14851 6.021343,0.53097 a 4.1204457,4.120396 0 0 0 0.955794,1.74163 z"
       id="path2699"
       style="fill:none;stroke:#ffffff;stroke-width:1.32292;stroke-dasharray:none;stroke-opacity:1" />
    <path
       class="cls-3"
       d="m 65.833121,247.08179 -4.247869,-3.18587 -3.185912,5.3098 a 32.676834,32.67644 0 0 0 -5.309866,-16.24797 4.2478822,4.2478309 0 0 0 0.977026,-1.80532 18.510146,18.509923 0 0 0 6.00011,-0.46728 c 3.345218,3.90802 5.29923,11.32048 5.766511,16.39664 z"
       id="path2690"
       style="fill:none;stroke:#ffffff;stroke-width:1.32292;stroke-dasharray:none;stroke-opacity:1" />
    <path
       class="cls-3"
       d="m 45.793727,231.15243 h -1.263729 c -6.934671,0.40354 -10.757765,-3.61065 -10.481659,-6.66908 1.285,-15.27096 14.464058,-5.87265 15.74902,1.35927 a 4.2478822,4.2478309 0 0 0 -4.003632,5.30981 z"
       id="path2705"
       style="fill:none;stroke:#ffffff;stroke-width:1.32292;stroke-dasharray:none;stroke-opacity:1" />
    <path
       class="cls-4"
       d="m 49.797359,225.84262 a 4.2478822,4.2478309 0 0 0 -4.141666,4.24786 c -4.109836,0 -6.955904,-1.57172 -8.644447,-3.79122 a 4.1523048,4.1522547 0 0 1 -0.838953,-2.90973 c 0.159346,-1.91152 0.711517,-5.3098 2.538093,-7.09389 4.300971,-0.72215 10.301121,4.83189 11.086973,9.54698 z"
       id="path2702"
       style="fill:none;stroke:#ffffff;stroke-width:1.32292;stroke-dasharray:none;stroke-opacity:1" />
    <path
       class="cls-4"
       d="m 45.814959,231.21612 c -2.28322,3.79122 -4.407174,10.10987 -4.407174,14.80373 l -3.185912,-5.3098 -3.706254,2.78233 c 0.796447,-4.24786 2.442525,-9.55762 5.309826,-12.80723 3.207185,0.94515 5.830248,0.20189 5.989514,0.53097 z"
       id="path2696"
       style="fill:none;stroke:#ffffff;stroke-width:1.32292;stroke-dasharray:none;stroke-opacity:1" />
    <path
       class="cls-3"
       d="m 65.758787,224.48335 c 0.276145,3.04779 -3.525756,7.07262 -10.48166,6.66908 h -1.263728 a 4.2478822,4.2478309 0 0 0 -4.003633,-5.30981 c 1.284961,-7.22129 14.464019,-16.65146 15.749021,-1.35927 z"
       id="path2693"
       style="fill:none;stroke:#ffffff;stroke-width:1.32292;stroke-dasharray:none;stroke-opacity:1" />
    <path
       class="cls-3"
       d="m 53.089474,232.95775 a 4.2478822,4.2478309 0 1 1 -3.292115,-7.11513 4.2478822,4.2478309 0 0 1 3.292115,7.11513 z"
       id="path2687"
       style="fill:none;stroke:#ffffff;stroke-width:1.32292;stroke-dasharray:none;stroke-opacity:1" />
    <path
       class="cls-4"
       d="m 53.769122,231.84271 a 4.2478822,4.2478309 0 0 1 -5.607205,-5.62837 4.2478822,4.2478309 0 0 1 5.607205,5.62837 z"
       id="path2684"
       style="fill:none;stroke:#ffffff;stroke-width:1.32292;stroke-dasharray:none;stroke-opacity:1" />
    <path
       class="cls-5"
       d="m 49.903563,231.15243 a 1.0619705,1.0619577 0 0 1 -1.061958,-1.06195 1.0619705,1.0619577 0 1 1 1.061958,1.06195 z"
       id="path2681"
       style="fill:none;stroke:#ffffff;stroke-width:1.32292;stroke-dasharray:none;stroke-opacity:1" />
    <path
       class="cls-5"
       d="m 47.907044,226.34177 c -1.518601,0.79644 -1.401801,1.72035 -1.709775,1.25312 -1.667271,-2.23014 -5.447899,-6.56292 -7.125806,-4.30096 a 1.0619705,1.0619577 0 0 1 -1.69914,-1.27435 c 1.858445,-2.4956 4.598309,-1.59292 6.9665,0.39294 a 24.797013,24.796714 0 0 1 3.568221,3.92925 z"
       id="path2678"
       style="fill:none;stroke:#ffffff;stroke-width:1.32292;stroke-dasharray:none;stroke-opacity:1" />
    <path
       class="cls-4"
       d="m 50.009766,225.84262 a 4.2478822,4.2478309 0 0 1 4.141665,4.24786 c 4.109836,0 6.955904,-1.57172 8.644447,-3.79122 a 4.1523048,4.1522547 0 0 0 0.838954,-2.90973 c -0.159346,-1.91152 -0.711517,-5.3098 -2.538093,-7.09389 -4.300971,-0.72215 -10.301121,4.83189 -11.086973,9.54698 z"
       id="path2675"
       style="fill:none;stroke:#ffffff;stroke-width:1.32292;stroke-dasharray:none;stroke-opacity:1" />
    <path
       class="cls-4"
       d="m 54.077096,231.21612 c 2.28322,3.79122 4.407174,10.10987 4.407174,14.80373 l 3.185912,-5.3098 3.706254,2.78233 c -0.796488,-4.24786 -2.442526,-9.55762 -5.309826,-12.80723 -3.207184,0.94515 -5.830249,0.20189 -5.989514,0.53097 z"
       id="path2672"
       style="fill:none;stroke:#ffffff;stroke-width:1.32292;stroke-dasharray:none;stroke-opacity:1" />
    <path
       class="cls-5"
       d="m 62.222434,223.50633 a 1.0619705,1.0619577 0 0 1 -1.486771,-0.21232 c -2.123955,-2.80357 -6.987774,4.24785 -7.285113,4.46022 a 4.2478822,4.2478309 0 0 0 -1.55047,-1.41238 c 0,-0.10637 4.173535,-5.84077 7.688654,-5.84077 1.879678,0.0321 3.992996,1.98585 2.6337,3.00533 z"
       id="path2669"
       style="fill:none;stroke:#ffffff;stroke-width:1.32292;stroke-dasharray:none;stroke-opacity:1" />
    <g
       id="Baloons"
       transform="matrix(0.13472104,0,0,0.13472104,18.344498,16.107359)"
       style="fill:none;stroke:#fbf9f9;stroke-width:9.81968;stroke-dasharray:none;stroke-opacity:1">
      <path
         d="M 405.33333,426.66667 H 384 V 416 c 0,-6 -2.3125,-8.5625 -7.54167,-13.79167 -5.82291,-5.82291 -13.79166,-13.79166 -13.79166,-28.875 0,-23.47916 19.13541,-32 32,-32 l 0.125,21.33334 C 389.86458,362.79167 384,364.73958 384,373.33333 c 0,6 2.3125,8.5625 7.54167,13.79167 5.82291,5.82292 13.79166,13.79167 13.79166,28.875 z"
         style="fill:none;stroke:#fbf9f9;stroke-width:9.81968;stroke-dasharray:none;stroke-opacity:1"
         id="path3672" />
      <ellipse
         cx="384"
         cy="213.33333"
         rx="106.66667"
         ry="128"
         style="fill:none;stroke:#fbf9f9;stroke-width:9.81968;stroke-dasharray:none;stroke-opacity:1"
         id="ellipse3674" />
      <path
         d="m 277.33333,213.33333 a 150.41752,150.41752 0 0 0 5.47392,40.441 c 7.21245,25.84318 31.218,44.746 58.04838,44.8911 q 0.23871,10e-4 0.4777,10e-4 c 58.91016,0 106.66667,-57.30729 106.66667,-128 a 150.41792,150.41792 0 0 0 -5.47391,-40.441 c -7.21246,-25.84318 -31.218,-44.746 -58.04838,-44.8911 q -0.23873,-10e-4 -0.47771,-10e-4 c -58.91016,0 -106.66667,57.3073 -106.66667,128 z"
         style="fill:none;stroke:#fbf9f9;stroke-width:9.81968;stroke-dasharray:none;stroke-opacity:1"
         id="path3676" />
      <ellipse
         cx="362.66666"
         cy="149.33333"
         rx="51.4561"
         ry="31.497931"
         transform="rotate(-45,362.66666,149.33334)"
         style="fill:none;stroke:#fbf9f9;stroke-width:9.81968;stroke-dasharray:none;stroke-opacity:1"
         id="ellipse3678" />
      <polygon
         points="128,426.667 213.333,426.667 170.667,362.667 "
         style="fill:none;stroke:#fbf9f9;stroke-width:9.81968;stroke-dasharray:none;stroke-opacity:1"
         id="polygon3680" />
      <polygon
         points="170.667,426.667 149.333,394.667 128,426.667 "
         style="fill:none;stroke:#fbf9f9;stroke-width:9.81968;stroke-dasharray:none;stroke-opacity:1"
         id="polygon3682" />
      <polygon
         points="362.667,384 405.333,384 384,341.333 "
         style="fill:none;stroke:#fbf9f9;stroke-width:9.81968;stroke-dasharray:none;stroke-opacity:1"
         id="polygon3684" />
      <rect
         x="128"
         y="384"
         width="85.333328"
         height="21.33333"
         style="fill:none;stroke:#fbf9f9;stroke-width:9.81968;stroke-dasharray:none;stroke-opacity:1"
         id="rect3686" />
      <rect
         x="170.66667"
         y="384"
         width="42.666672"
         height="21.33333"
         style="fill:none;stroke:#fbf9f9;stroke-width:9.81968;stroke-dasharray:none;stroke-opacity:1"
         id="rect3688" />
      <rect
         x="362.66666"
         y="341.33334"
         width="42.666672"
         height="21.33333"
         style="fill:none;stroke:#fbf9f9;stroke-width:9.81968;stroke-dasharray:none;stroke-opacity:1"
         id="rect3690" />
      <path
         d="m 181.33333,490.66667 h -10.66666 v -21.33334 h 10.66666 C 186.13542,469.20833 192,467.26042 192,458.66667 c 0,-6 -2.3125,-8.5625 -7.54167,-13.79167 -5.82291,-5.82292 -13.79166,-13.79167 -13.79166,-28.875 0,-23.47917 19.13541,-32 32,-32 h 10.66666 v 21.33333 H 202.66667 C 197.86458,405.45833 192,407.40625 192,416 c 0,6 2.3125,8.5625 7.54167,13.79167 5.82291,5.82291 13.79166,13.79166 13.79166,28.875 0,23.47916 -19.13541,32 -32,32 z"
         style="fill:none;stroke:#fbf9f9;stroke-width:9.81968;stroke-dasharray:none;stroke-opacity:1"
         id="path3692" />
      <ellipse
         cx="170.66667"
         cy="202.66667"
         rx="149.33333"
         ry="181.33333"
         style="fill:none;stroke:#fbf9f9;stroke-width:9.81968;stroke-dasharray:none;stroke-opacity:1"
         id="ellipse3694" />
      <path
         d="m 170.66667,21.33333 c -82.474,0 -149.33334,81.1849 -149.33334,181.33334 a 214.78775,214.78775 0 0 0 10.60178,67.15747 c 13.56927,41.213 51.895,71.23555 95.28345,71.50675 q 0.39048,0.002 0.78144,0.002 c 82.474,0 149.33333,-81.18619 149.33333,-181.33333 A 214.78815,214.78815 0 0 0 266.73156,92.84252 c -13.56927,-41.213 -51.895,-71.23555 -95.28346,-71.50674 q -0.39048,-0.0024 -0.78143,-0.0024 z"
         style="fill:none;stroke:#fbf9f9;stroke-width:9.81968;stroke-dasharray:none;stroke-opacity:1"
         id="path3696" />
      <ellipse
         cx="138.66667"
         cy="117.33333"
         rx="89.47435"
         ry="56.04998"
         transform="rotate(-45,138.66667,117.33334)"
         style="fill:none;stroke:#fbf9f9;stroke-width:9.81968;stroke-dasharray:none;stroke-opacity:1"
         id="ellipse3698" />
    </g>
    <g
       id="g5192"
       transform="matrix(0.1596806,0,0,0.15967524,412.54145,192.30411)"
       style="fill:none;stroke:#fafafa;stroke-width:8.28491;stroke-dasharray:none;stroke-opacity:1">
	<g
   id="g5010"
   style="fill:none;stroke:#fafafa;stroke-width:8.28491;stroke-dasharray:none;stroke-opacity:1">
		<g
   id="g5008"
   style="fill:none;stroke:#fafafa;stroke-width:8.28491;stroke-dasharray:none;stroke-opacity:1">
			<path
   class="st2"
   d="m 266.161,267.738 c -9.13,-7.878 -10.589,-21.587 -3.325,-31.208 7.5,-9.941 21.36,-12.105 31.652,-4.86 l 35.521,22.722 3.511,-5.488 -35.401,-22.642 c -13.066,-9.198 -30.851,-6.416 -40.482,6.343 -9.326,12.353 -7.452,29.951 4.269,40.065 l 87.64,75.626 v 158.603 h 6.514 V 345.313 Z"
   id="path5006"
   style="fill:none;stroke:#fafafa;stroke-width:8.28491;stroke-dasharray:none;stroke-opacity:1" />

		</g>

	</g>

	<g
   id="g5016"
   style="fill:none;stroke:#fafafa;stroke-width:8.28491;stroke-dasharray:none;stroke-opacity:1">
		<g
   id="g5014"
   style="fill:none;stroke:#fafafa;stroke-width:8.28491;stroke-dasharray:none;stroke-opacity:1">
			<path
   class="st2"
   d="M 476.312,284.48 360.39,242.359 c -9.123,-3.316 -18.915,-2.022 -26.865,3.548 -7.948,5.569 -12.506,14.33 -12.506,24.036 0,12.05 7.553,23.055 18.798,27.387 l 89.665,34.545 2.341,-6.08 -89.665,-34.545 c -8.747,-3.37 -14.625,-11.933 -14.625,-21.308 0,-7.551 3.548,-14.367 9.731,-18.7 6.188,-4.333 13.804,-5.337 20.901,-2.761 l 115.921,42.121 c 18.781,6.826 31.4,24.836 31.4,44.818 V 506.899 H 512 V 335.42 c 0,-22.712 -14.343,-43.182 -35.688,-50.94 z"
   id="path5012"
   style="fill:none;stroke:#fafafa;stroke-width:8.28491;stroke-dasharray:none;stroke-opacity:1" />

		</g>

	</g>

	<g
   id="g5022"
   style="fill:none;stroke:#fafafa;stroke-width:8.28491;stroke-dasharray:none;stroke-opacity:1">
		<g
   id="g5020"
   style="fill:none;stroke:#fafafa;stroke-width:8.28491;stroke-dasharray:none;stroke-opacity:1">
			<path
   class="st1"
   d="M 471.491,297.745 355.568,255.624 c -1.724,-0.627 -3.497,-0.936 -5.252,-0.936 -3.06,0 -6.067,0.94 -8.69,2.777 -4.126,2.891 -6.493,7.44 -6.493,12.478 0,6.254 3.92,11.968 9.756,14.217 l 79.535,30.641 c 5.595,2.156 8.384,8.44 6.228,14.035 -2.156,5.595 -8.438,8.382 -14.034,6.227 l -79.537,-30.642 c -14.154,-5.454 -23.663,-19.309 -23.663,-34.478 0,-5.269 1.128,-10.399 3.221,-15.081 l -26.248,-16.791 -0.202,-0.129 -0.197,-0.138 c -2.704,-1.904 -5.795,-2.823 -8.853,-2.823 -4.644,0 -9.214,2.118 -12.237,6.126 -4.862,6.439 -3.885,15.608 2.222,20.876 l 88.768,76.6 3.764,3.249 v 165.066 h 134.227 v -171.48 c 0.002,-16.796 -10.605,-31.937 -26.392,-37.673 z"
   id="path5018"
   style="fill:none;stroke:#fafafa;stroke-width:8.28491;stroke-dasharray:none;stroke-opacity:1" />

		</g>

	</g>

	<g
   id="g5028"
   style="fill:none;stroke:#fafafa;stroke-width:8.28491;stroke-dasharray:none;stroke-opacity:1">
		<g
   id="g5026"
   style="fill:none;stroke:#fafafa;stroke-width:8.28491;stroke-dasharray:none;stroke-opacity:1">
			
				<rect
   x="421.07199"
   y="226.81"
   transform="matrix(0.3418,-0.9398,0.9398,0.3418,26.4432,575.8629)"
   class="st2"
   width="6.5139999"
   height="84.487"
   id="rect5024"
   style="fill:none;stroke:#fafafa;stroke-width:8.28469;stroke-dasharray:none;stroke-opacity:1" />

		</g>

	</g>

	<g
   id="g5034"
   style="fill:none;stroke:#fafafa;stroke-width:8.28491;stroke-dasharray:none;stroke-opacity:1">
		<g
   id="g5032"
   style="fill:none;stroke:#fafafa;stroke-width:8.28491;stroke-dasharray:none;stroke-opacity:1">
			
				<rect
   x="232.157"
   y="168.077"
   transform="matrix(0.7268,-0.6868,0.6868,0.7268,-73.5206,221.0426)"
   class="st4"
   width="17.927999"
   height="69.740997"
   id="rect5030"
   style="fill:none;stroke:#fafafa;stroke-width:8.28519;stroke-dasharray:none;stroke-opacity:1" />

		</g>

	</g>

	<g
   id="g5042"
   style="fill:none;stroke:#fafafa;stroke-width:8.28491;stroke-dasharray:none;stroke-opacity:1">
		<g
   id="g5040"
   style="fill:none;stroke:#fafafa;stroke-width:8.28491;stroke-dasharray:none;stroke-opacity:1">
			<g
   id="g5038"
   style="fill:none;stroke:#fafafa;stroke-width:8.28491;stroke-dasharray:none;stroke-opacity:1">
				<path
   class="st2"
   d="m 223.794,166.863 -17.765,16.787 52.418,55.381 17.765,-16.788 z m -8.554,17.044 8.295,-7.838 43.466,45.918 -8.297,7.839 z"
   id="path5036"
   style="fill:none;stroke:#fafafa;stroke-width:8.28491;stroke-dasharray:none;stroke-opacity:1" />

			</g>

		</g>

	</g>

	<g
   id="g5048"
   style="fill:none;stroke:#fafafa;stroke-width:8.28491;stroke-dasharray:none;stroke-opacity:1">
		<g
   id="g5046"
   style="fill:none;stroke:#fafafa;stroke-width:8.28491;stroke-dasharray:none;stroke-opacity:1">
			<path
   class="st2"
   d="m 267.345,226.846 -3.932,5.195 c 1.309,0.989 32.369,24.293 62.845,29.797 l 1.158,-6.41 c -28.924,-5.223 -59.764,-28.348 -60.071,-28.582 z"
   id="path5044"
   style="fill:none;stroke:#fafafa;stroke-width:8.28491;stroke-dasharray:none;stroke-opacity:1" />

		</g>

	</g>

	<g
   id="g5056"
   style="fill:none;stroke:#fafafa;stroke-width:8.28491;stroke-dasharray:none;stroke-opacity:1">
		<g
   id="g5054"
   style="fill:none;stroke:#fafafa;stroke-width:8.28491;stroke-dasharray:none;stroke-opacity:1">
			<g
   id="g5052"
   style="fill:none;stroke:#fafafa;stroke-width:8.28491;stroke-dasharray:none;stroke-opacity:1">
				<path
   class="st2"
   d="m 432.179,196.15 c -28.315,0 -51.352,23.026 -51.352,51.331 0,2.657 0.197,5.233 0.583,7.658 l 0.303,1.893 83.026,30.173 1.45,-1.283 c 11.007,-9.732 17.32,-23.743 17.32,-38.441 0,-28.304 -23.026,-51.331 -51.33,-51.331 z m 31.103,83.594 -75.691,-27.507 c -0.165,-1.53 -0.25,-3.122 -0.25,-4.756 0,-24.712 20.115,-44.817 44.838,-44.817 24.712,0 44.816,20.104 44.816,44.817 0,12.193 -4.974,23.844 -13.713,32.263 z"
   id="path5050"
   style="fill:none;stroke:#fafafa;stroke-width:8.28491;stroke-dasharray:none;stroke-opacity:1" />

			</g>

		</g>

	</g>

	<g
   id="g5062"
   style="fill:none;stroke:#fafafa;stroke-width:8.28491;stroke-dasharray:none;stroke-opacity:1">
		<g
   id="g5060"
   style="fill:none;stroke:#fafafa;stroke-width:8.28491;stroke-dasharray:none;stroke-opacity:1">
			<path
   class="st3"
   d="m 432.179,210.264 c -20.314,0 -36.88,16.339 -37.231,36.559 l 66.176,24.05 c 5.312,-6.571 8.274,-14.821 8.274,-23.392 -0.001,-20.521 -16.698,-37.217 -37.219,-37.217 z"
   id="path5058"
   style="fill:none;stroke:#fafafa;stroke-width:8.28491;stroke-dasharray:none;stroke-opacity:1" />

		</g>

	</g>

	<g
   id="g5068"
   style="fill:none;stroke:#fafafa;stroke-width:8.28491;stroke-dasharray:none;stroke-opacity:1">
		<g
   id="g5066"
   style="fill:none;stroke:#fafafa;stroke-width:8.28491;stroke-dasharray:none;stroke-opacity:1">
			<polygon
   class="st3"
   points="84.501,16.75 145.405,88.59 97.897,6.656 "
   id="polygon5064"
   style="fill:none;stroke:#fafafa;stroke-width:8.28491;stroke-dasharray:none;stroke-opacity:1" />

		</g>

	</g>

	<g
   id="g5074"
   style="fill:none;stroke:#fafafa;stroke-width:8.28491;stroke-dasharray:none;stroke-opacity:1">
		<g
   id="g5072"
   style="fill:none;stroke:#fafafa;stroke-width:8.28491;stroke-dasharray:none;stroke-opacity:1">
			<path
   class="st2"
   d="M 0.212,99.192 0,105.702 c 92.699,3.023 161.047,60.612 161.725,61.194 l 4.237,-4.948 C 165.267,161.352 95.265,102.291 0.212,99.192 Z"
   id="path5070"
   style="fill:none;stroke:#fafafa;stroke-width:8.28491;stroke-dasharray:none;stroke-opacity:1" />

		</g>

	</g>

	<g
   id="g5082"
   style="fill:none;stroke:#fafafa;stroke-width:8.28491;stroke-dasharray:none;stroke-opacity:1">
		<g
   id="g5080"
   style="fill:none;stroke:#fafafa;stroke-width:8.28491;stroke-dasharray:none;stroke-opacity:1">
			<g
   id="g5078"
   style="fill:none;stroke:#fafafa;stroke-width:8.28491;stroke-dasharray:none;stroke-opacity:1">
				<path
   class="st2"
   d="m 63.456,182.062 c -16.44,4.097 -36.794,16.501 -40.328,38.009 -5.152,3.132 -9.97,7.48 -14.502,13.071 l 5.06,4.103 c 2.909,-3.588 5.893,-6.576 8.995,-8.988 0.414,7.6 3.143,14.651 7.725,19.449 4.251,4.45 9.777,6.755 16.116,6.755 0.962,0 1.944,-0.054 2.943,-0.16 8.88,-0.951 16.569,-7.367 18.7,-15.604 2.059,-7.958 -0.269,-13.281 -2.585,-16.345 -3.874,-5.126 -10.905,-8.179 -19.288,-8.374 -5.541,-0.127 -10.702,0.684 -15.599,2.456 5.026,-15.537 21.103,-24.754 34.337,-28.051 15.439,-3.851 38.355,-4.615 52.187,2.796 l 3.075,-5.742 c -15.434,-8.274 -39.675,-7.654 -56.836,-3.375 z M 46.14,220.49 c 6.385,0.15 11.576,2.26 14.243,5.789 2.108,2.791 2.606,6.42 1.476,10.786 -1.442,5.577 -6.947,10.101 -13.088,10.757 -5.553,0.602 -10.159,-0.956 -13.654,-4.616 -4.186,-4.382 -6.391,-11.662 -5.903,-19.087 5.21,-2.592 10.81,-3.762 16.926,-3.629 z"
   id="path5076"
   style="fill:none;stroke:#fafafa;stroke-width:8.28491;stroke-dasharray:none;stroke-opacity:1" />

			</g>

		</g>

	</g>

	<g
   id="g5090"
   style="fill:none;stroke:#fafafa;stroke-width:8.28491;stroke-dasharray:none;stroke-opacity:1">
		<g
   id="g5088"
   style="fill:none;stroke:#fafafa;stroke-width:8.28491;stroke-dasharray:none;stroke-opacity:1">
			<g
   id="g5086"
   style="fill:none;stroke:#fafafa;stroke-width:8.28491;stroke-dasharray:none;stroke-opacity:1">
				<path
   class="st2"
   d="m 303.353,26.194 c -2.89,2.474 -6.056,5.6 -8.878,9.32 -0.123,0.046 -0.246,0.091 -0.369,0.139 -18.917,7.253 -35.234,26.842 -44.195,42.755 -10.172,18.057 -16.052,38.804 -17.006,59.998 l 6.505,0.293 c 0.91,-20.18 6.504,-39.922 16.175,-57.094 6.8,-12.072 18.98,-27.553 33.082,-36.036 -1.188,2.938 -2.04,6.095 -2.394,9.456 -1.205,11.349 5.011,25.143 17.49,28.582 8.908,2.452 19.398,-1.342 25.524,-9.224 6.387,-8.215 7.4,-19.902 2.466,-28.419 -5.374,-9.273 -16.213,-13.113 -26.629,-12.593 0.835,-0.798 1.663,-1.543 2.466,-2.231 17.214,-14.74 31.922,-21.054 47.681,-20.443 l 0.246,-6.51 C 332.834,3.331 314.869,16.333 303.353,26.194 Z m 22.763,23.036 c 3.639,6.281 2.826,14.98 -1.975,21.156 -4.552,5.857 -12.222,8.709 -18.649,6.94 -9.022,-2.486 -13.639,-13.156 -12.744,-21.615 0.585,-5.532 2.863,-10.472 5.768,-14.681 9.923,-2.938 22.369,-0.825 27.6,8.2 z"
   id="path5084"
   style="fill:none;stroke:#fafafa;stroke-width:8.28491;stroke-dasharray:none;stroke-opacity:1" />

			</g>

		</g>

	</g>

	<g
   id="g5098"
   style="fill:none;stroke:#fafafa;stroke-width:8.28491;stroke-dasharray:none;stroke-opacity:1">
		<g
   id="g5096"
   style="fill:none;stroke:#fafafa;stroke-width:8.28491;stroke-dasharray:none;stroke-opacity:1">
			<g
   id="g5094"
   style="fill:none;stroke:#fafafa;stroke-width:8.28491;stroke-dasharray:none;stroke-opacity:1">
				<path
   class="st2"
   d="m 10.708,483.118 v 27.038 h 310.216 v -27.038 z m 303.703,20.524 H 17.223 v -14.01 h 297.188 z"
   id="path5092"
   style="fill:none;stroke:#fafafa;stroke-width:8.28491;stroke-dasharray:none;stroke-opacity:1" />

			</g>

		</g>

	</g>

	<g
   id="g5104"
   style="fill:none;stroke:#fafafa;stroke-width:8.28491;stroke-dasharray:none;stroke-opacity:1">
		<g
   id="g5102"
   style="fill:none;stroke:#fafafa;stroke-width:8.28491;stroke-dasharray:none;stroke-opacity:1">
			<path
   class="st3"
   d="m 116.662,260.531 12.069,6.632 c 9.039,-33.203 47.854,-58.471 47.854,-58.471 -39.304,15.554 -59.923,51.839 -59.923,51.839 z"
   id="path5100"
   style="fill:none;stroke:#fafafa;stroke-width:8.28491;stroke-dasharray:none;stroke-opacity:1" />

		</g>

	</g>

	<g
   id="g5112"
   style="fill:none;stroke:#fafafa;stroke-width:8.28491;stroke-dasharray:none;stroke-opacity:1">
		<g
   id="g5110"
   style="fill:none;stroke:#fafafa;stroke-width:8.28491;stroke-dasharray:none;stroke-opacity:1">
			<g
   id="g5108"
   style="fill:none;stroke:#fafafa;stroke-width:8.28491;stroke-dasharray:none;stroke-opacity:1">
				<path
   class="st2"
   d="m 98.872,1.844 -19.086,14.382 63.133,74.47 5.303,-3.741 z m -9.655,15.432 7.704,-5.807 27.329,47.133 z"
   id="path5106"
   style="fill:none;stroke:#fafafa;stroke-width:8.28491;stroke-dasharray:none;stroke-opacity:1" />

			</g>

		</g>

	</g>

	<g
   id="g5120"
   style="fill:none;stroke:#fafafa;stroke-width:8.28491;stroke-dasharray:none;stroke-opacity:1">
		<g
   id="g5118"
   style="fill:none;stroke:#fafafa;stroke-width:8.28491;stroke-dasharray:none;stroke-opacity:1">
			<g
   id="g5116"
   style="fill:none;stroke:#fafafa;stroke-width:8.28491;stroke-dasharray:none;stroke-opacity:1">
				<path
   class="st2"
   d="m 175.388,205.664 c -39.914,15.793 -60.693,51.735 -61.558,53.257 l -1.633,2.872 18.59,10.216 1.086,-3.991 c 8.601,-31.593 46.112,-56.352 46.49,-56.598 l 27.06,-17.642 z m -48.594,56.72 -5.547,-3.049 c 3.378,-5.156 11.595,-16.62 24.339,-27.688 -7.627,8.678 -14.815,19.143 -18.792,30.737 z"
   id="path5114"
   style="fill:none;stroke:#fafafa;stroke-width:8.28491;stroke-dasharray:none;stroke-opacity:1" />

			</g>

		</g>

	</g>

	<g
   id="g5126"
   style="fill:none;stroke:#fafafa;stroke-width:8.28491;stroke-dasharray:none;stroke-opacity:1">
		<g
   id="g5124"
   style="fill:none;stroke:#fafafa;stroke-width:8.28491;stroke-dasharray:none;stroke-opacity:1">
			<path
   class="st2"
   d="m 211.323,16.721 c -0.542,1.329 -13.295,32.931 -15.03,65.161 l 6.506,0.35 c 1.673,-31.109 14.428,-62.737 14.555,-63.053 z"
   id="path5122"
   style="fill:none;stroke:#fafafa;stroke-width:8.28491;stroke-dasharray:none;stroke-opacity:1" />

		</g>

	</g>

	<g
   id="g5132"
   style="fill:none;stroke:#fafafa;stroke-width:8.28491;stroke-dasharray:none;stroke-opacity:1">
		<g
   id="g5130"
   style="fill:none;stroke:#fafafa;stroke-width:8.28491;stroke-dasharray:none;stroke-opacity:1">
			<path
   class="st2"
   d="m 202.803,99.669 h -6.514 c 0,1.304 0.085,32.204 7.556,55.248 l 6.196,-2.008 c -7.146,-22.052 -7.238,-52.931 -7.238,-53.24 z"
   id="path5128"
   style="fill:none;stroke:#fafafa;stroke-width:8.28491;stroke-dasharray:none;stroke-opacity:1" />

		</g>

	</g>

	<g
   id="g5138"
   style="fill:none;stroke:#fafafa;stroke-width:8.28491;stroke-dasharray:none;stroke-opacity:1">
		<g
   id="g5136"
   style="fill:none;stroke:#fafafa;stroke-width:8.28491;stroke-dasharray:none;stroke-opacity:1">
			<path
   class="st2"
   d="m 87.305,280.837 c -1.747,1.256 -42.857,31.296 -49.138,78.991 l 6.459,0.85 c 5.906,-44.848 46.076,-74.26 46.481,-74.552 z"
   id="path5134"
   style="fill:none;stroke:#fafafa;stroke-width:8.28491;stroke-dasharray:none;stroke-opacity:1" />

		</g>

	</g>

	<g
   id="g5144"
   style="fill:none;stroke:#fafafa;stroke-width:8.28491;stroke-dasharray:none;stroke-opacity:1">
		<g
   id="g5142"
   style="fill:none;stroke:#fafafa;stroke-width:8.28491;stroke-dasharray:none;stroke-opacity:1">
			<path
   class="st4"
   d="m 179.422,431.51 v 6.699 c 0,10.327 8.372,18.699 18.699,18.699 v 0 c 10.328,0 18.7,-8.372 18.7,-18.699 v -6.699 z"
   id="path5140"
   style="fill:none;stroke:#fafafa;stroke-width:8.28491;stroke-dasharray:none;stroke-opacity:1" />

		</g>

	</g>

	<g
   id="g5150"
   style="fill:none;stroke:#fafafa;stroke-width:8.28491;stroke-dasharray:none;stroke-opacity:1">
		<g
   id="g5148"
   style="fill:none;stroke:#fafafa;stroke-width:8.28491;stroke-dasharray:none;stroke-opacity:1">
			<path
   class="st2"
   d="m 194.864,456.909 v 10.767 c 0,8.515 -6.928,15.442 -15.443,15.442 v 6.514 c 12.108,0 21.958,-9.85 21.958,-21.957 v -10.767 h -6.515 z"
   id="path5146"
   style="fill:none;stroke:#fafafa;stroke-width:8.28491;stroke-dasharray:none;stroke-opacity:1" />

		</g>

	</g>

	<g
   id="g5156"
   style="fill:none;stroke:#fafafa;stroke-width:8.28491;stroke-dasharray:none;stroke-opacity:1">
		<g
   id="g5154"
   style="fill:none;stroke:#fafafa;stroke-width:8.28491;stroke-dasharray:none;stroke-opacity:1">
			<path
   class="st2"
   d="m 201.378,467.676 v -10.767 h -6.514 v 10.767 c 0,12.107 9.85,21.957 21.958,21.957 v -6.514 c -8.516,-0.001 -15.444,-6.929 -15.444,-15.443 z"
   id="path5152"
   style="fill:none;stroke:#fafafa;stroke-width:8.28491;stroke-dasharray:none;stroke-opacity:1" />

		</g>

	</g>

	<g
   id="g5162"
   style="fill:none;stroke:#fafafa;stroke-width:8.28491;stroke-dasharray:none;stroke-opacity:1">
		<g
   id="g5160"
   style="fill:none;stroke:#fafafa;stroke-width:8.28491;stroke-dasharray:none;stroke-opacity:1">
			<rect
   x="228.841"
   y="180.25101"
   class="st2"
   width="6.5139999"
   height="26.08"
   id="rect5158"
   style="fill:none;stroke:#fafafa;stroke-width:8.28491;stroke-dasharray:none;stroke-opacity:1" />

		</g>

	</g>

	<g
   id="g5168"
   style="fill:none;stroke:#fafafa;stroke-width:8.28491;stroke-dasharray:none;stroke-opacity:1">
		<g
   id="g5166"
   style="fill:none;stroke:#fafafa;stroke-width:8.28491;stroke-dasharray:none;stroke-opacity:1">
			<rect
   x="245.035"
   y="197.825"
   class="st2"
   width="6.5139999"
   height="26.08"
   id="rect5164"
   style="fill:none;stroke:#fafafa;stroke-width:8.28491;stroke-dasharray:none;stroke-opacity:1" />

		</g>

	</g>

	<g
   id="g5176"
   style="fill:none;stroke:#fafafa;stroke-width:8.28491;stroke-dasharray:none;stroke-opacity:1">
		<g
   id="g5174"
   style="fill:none;stroke:#fafafa;stroke-width:8.28491;stroke-dasharray:none;stroke-opacity:1">
			<g
   id="g5172"
   style="fill:none;stroke:#fafafa;stroke-width:8.28491;stroke-dasharray:none;stroke-opacity:1">
				<path
   class="st2"
   d="m 176.164,410.25 v 27.959 c 0,12.107 9.85,21.957 21.958,21.957 12.108,0 21.958,-9.85 21.958,-21.957 V 410.25 Z m 37.401,27.959 c 0,8.515 -6.928,15.442 -15.444,15.442 -8.516,0 -15.443,-6.928 -15.443,-15.442 v -21.445 h 30.887 z"
   id="path5170"
   style="fill:none;stroke:#fafafa;stroke-width:8.28491;stroke-dasharray:none;stroke-opacity:1" />

			</g>

		</g>

	</g>

	<g
   id="g5182"
   style="fill:none;stroke:#fafafa;stroke-width:8.28491;stroke-dasharray:none;stroke-opacity:1">
		<g
   id="g5180"
   style="fill:none;stroke:#fafafa;stroke-width:8.28491;stroke-dasharray:none;stroke-opacity:1">
			<polygon
   class="st4"
   points="135.778,446.833 101.296,446.833 105.465,486.374 131.609,486.374 "
   id="polygon5178"
   style="fill:none;stroke:#fafafa;stroke-width:8.28491;stroke-dasharray:none;stroke-opacity:1" />

		</g>

	</g>

	<g
   id="g5190"
   style="fill:none;stroke:#fafafa;stroke-width:8.28491;stroke-dasharray:none;stroke-opacity:1">
		<g
   id="g5188"
   style="fill:none;stroke:#fafafa;stroke-width:8.28491;stroke-dasharray:none;stroke-opacity:1">
			<g
   id="g5186"
   style="fill:none;stroke:#fafafa;stroke-width:8.28491;stroke-dasharray:none;stroke-opacity:1">
				<path
   class="st2"
   d="m 95.331,421.427 7.208,68.206 h 32.005 l 7.209,-68.206 z m 33.351,61.691 H 108.4 l -5.829,-55.177 h 31.943 z"
   id="path5184"
   style="fill:none;stroke:#fafafa;stroke-width:8.28491;stroke-dasharray:none;stroke-opacity:1" />

			</g>

		</g>

	</g>

</g>
    <polygon
       style="fill:none;fill-opacity:1;stroke:#fafafa;stroke-width:9.35554;stroke-dasharray:none;stroke-opacity:1"
       points="276.003,83.954 320.729,90.452 288.366,121.999 296.005,166.544 256.002,145.513 215.998,166.544 223.638,121.999 191.274,90.452 235.999,83.954 256.002,43.425 "
       id="polygon6610"
       transform="matrix(0.14144912,0,0,0.14136028,429.31766,7.0209891)" />
    <polygon
       style="fill:none;fill-opacity:1;stroke:#fafafa;stroke-width:9.35554;stroke-dasharray:none;stroke-opacity:1"
       points="81.387,187.926 124.33,173.838 109.391,216.493 136.06,252.981 90.876,251.954 64.415,288.593 51.429,245.304 8.406,231.46 45.563,205.732 45.436,160.537 "
       id="polygon6612"
       transform="matrix(0.14144912,0,0,0.14136028,429.31766,7.0209891)" />
    <polygon
       style="fill:none;fill-opacity:1;stroke:#fafafa;stroke-width:9.35554;stroke-dasharray:none;stroke-opacity:1"
       points="430.616,187.926 387.673,173.838 402.612,216.493 375.943,252.981 421.127,251.954 447.587,288.593 460.574,245.304 503.597,231.46 466.439,205.732 466.567,160.537 "
       id="polygon6614"
       transform="matrix(0.14144912,0,0,0.14136028,429.31766,7.0209891)" />
    <g
       id="g6624"
       transform="matrix(0.14144912,0,0,0.14136028,429.31766,7.0209891)"
       style="fill:none;fill-opacity:1;stroke:#fafafa;stroke-width:9.35554;stroke-dasharray:none;stroke-opacity:1">
	<path
   style="fill:none;fill-opacity:1;stroke:#fafafa;stroke-width:9.35554;stroke-dasharray:none;stroke-opacity:1"
   d="m 375.752,43.338 c -4.641,0 -8.404,-3.763 -8.404,-8.404 v -8.757 c 0,-4.641 3.763,-8.404 8.404,-8.404 4.642,0 8.404,3.763 8.404,8.404 v 8.757 c 0,4.641 -3.763,8.404 -8.404,8.404 z"
   id="path6616" />

	<path
   style="fill:none;fill-opacity:1;stroke:#fafafa;stroke-width:9.35554;stroke-dasharray:none;stroke-opacity:1"
   d="m 375.752,88.125 c -4.641,0 -8.404,-3.763 -8.404,-8.404 v -8.757 c 0,-4.641 3.763,-8.404 8.404,-8.404 4.642,0 8.404,3.763 8.404,8.404 v 8.757 c 0,4.641 -3.763,8.404 -8.404,8.404 z"
   id="path6618" />

	<path
   style="fill:none;fill-opacity:1;stroke:#fafafa;stroke-width:9.35554;stroke-dasharray:none;stroke-opacity:1"
   d="m 402.524,61.353 h -8.757 c -4.641,0 -8.404,-3.763 -8.404,-8.404 0,-4.641 3.763,-8.404 8.404,-8.404 h 8.757 c 4.641,0 8.404,3.763 8.404,8.404 0,4.641 -3.763,8.404 -8.404,8.404 z"
   id="path6620" />

	<path
   style="fill:none;fill-opacity:1;stroke:#fafafa;stroke-width:9.35554;stroke-dasharray:none;stroke-opacity:1"
   d="m 357.736,61.353 h -8.757 c -4.641,0 -8.404,-3.763 -8.404,-8.404 0,-4.641 3.763,-8.404 8.404,-8.404 h 8.757 c 4.641,0 8.404,3.763 8.404,8.404 0,4.641 -3.761,8.404 -8.404,8.404 z"
   id="path6622" />

</g>
    <g
       id="g6634"
       transform="matrix(0.14144912,0,0,0.14136028,429.31766,7.0209891)"
       style="fill:none;fill-opacity:1;stroke:#fafafa;stroke-width:9.35554;stroke-dasharray:none;stroke-opacity:1">
	<path
   style="fill:none;fill-opacity:1;stroke:#fafafa;stroke-width:9.35554;stroke-dasharray:none;stroke-opacity:1"
   d="m 105.722,83.4 c -4.641,0 -8.404,-3.763 -8.404,-8.404 V 66.24 c 0,-4.642 3.763,-8.404 8.404,-8.404 4.641,0 8.404,3.763 8.404,8.404 v 8.756 c 10e-4,4.641 -3.762,8.404 -8.404,8.404 z"
   id="path6626" />

	<path
   style="fill:none;fill-opacity:1;stroke:#fafafa;stroke-width:9.35554;stroke-dasharray:none;stroke-opacity:1"
   d="m 105.722,128.187 c -4.641,0 -8.404,-3.763 -8.404,-8.404 v -8.756 c 0,-4.641 3.763,-8.404 8.404,-8.404 4.641,0 8.404,3.763 8.404,8.404 v 8.756 c 10e-4,4.641 -3.762,8.404 -8.404,8.404 z"
   id="path6628" />

	<path
   style="fill:none;fill-opacity:1;stroke:#fafafa;stroke-width:9.35554;stroke-dasharray:none;stroke-opacity:1"
   d="m 132.495,101.416 h -8.756 c -4.641,0 -8.404,-3.763 -8.404,-8.404 0,-4.641 3.763,-8.404 8.404,-8.404 h 8.756 c 4.641,0 8.404,3.763 8.404,8.404 0,4.641 -3.763,8.404 -8.404,8.404 z"
   id="path6630" />

	<path
   style="fill:none;fill-opacity:1;stroke:#fafafa;stroke-width:9.35554;stroke-dasharray:none;stroke-opacity:1"
   d="m 87.708,101.416 h -8.756 c -4.641,0 -8.404,-3.763 -8.404,-8.404 0,-4.641 3.763,-8.404 8.404,-8.404 h 8.756 c 4.641,0 8.404,3.763 8.404,8.404 0,4.641 -3.763,8.404 -8.404,8.404 z"
   id="path6632" />

</g>
    <path
       d="m 459.87052,31.751688 c -0.24668,0 -0.49181,-0.07648 -0.69889,-0.227025 -0.36622,-0.265758 -0.54939,-0.716131 -0.47301,-1.161984 l 0.97501,-5.681268 -4.13017,-4.023396 c -0.32392,-0.315658 -0.44062,-0.787801 -0.30087,-1.217819 0.13976,-0.430018 0.51177,-0.743555 0.9596,-0.80858 l 5.70803,-0.828938 2.55259,-5.16898 c 0.2003,-0.405562 0.61361,-0.662272 1.0661,-0.662272 0.4525,0 0.86582,0.25671 1.06611,0.662272 l 2.55259,5.16898 5.70804,0.828938 c 0.44782,0.06488 0.81983,0.37842 0.95959,0.80858 0.13975,0.430018 0.0232,0.902161 -0.30086,1.217819 l -4.13017,4.023396 0.975,5.681268 c 0.0764,0.445709 -0.10679,0.896226 -0.473,1.161984 -0.36579,0.265754 -0.85124,0.300953 -1.25183,0.09047 l -5.10532,-2.682312 -5.10519,2.682312 c -0.17426,0.0916 -0.36423,0.136555 -0.55335,0.136555 z m 5.65825,-5.348932 c 0.19011,0 0.37994,0.04552 0.55321,0.136411 l 3.52661,1.852668 -0.67344,-3.92416 c -0.066,-0.385349 0.0617,-0.778755 0.34189,-1.051721 l 2.85302,-2.779143 -3.94275,-0.572651 c -0.38729,-0.05626 -0.72181,-0.29926 -0.89509,-0.649974 l -1.76316,-3.570478 -1.76316,3.570478 c -0.17314,0.350573 -0.50781,0.593713 -0.8951,0.649974 l -3.94275,0.572651 2.85303,2.779143 c 0.28021,0.272966 0.40823,0.666231 0.34188,1.051721 l -0.67344,3.92416 3.52648,-1.852668 c 0.17285,-0.09089 0.3628,-0.136411 0.55277,-0.136411 z"
       id="path6636"
       style="fill:none;fill-opacity:1;stroke:#fafafa;stroke-width:1.32291;stroke-dasharray:none;stroke-opacity:1" />
    <path
       d="m 438.42925,49.004709 c -0.0657,0 -0.1317,-0.0056 -0.19775,-0.01648 -0.44613,-0.07519 -0.81092,-0.396938 -0.94106,-0.83021 l -1.65736,-5.521106 -5.49063,-1.765598 c -0.43086,-0.138671 -0.74544,-0.50946 -0.81192,-0.956723 -0.0662,-0.447402 0.12717,-0.893535 0.49918,-1.15096 l 4.74208,-3.281392 -0.0162,-5.764106 c -9.3e-4,-0.452211 0.25447,-0.865975 0.65971,-1.067413 0.40526,-0.201154 0.88972,-0.155073 1.24956,0.118743 l 4.58819,3.493154 5.4803,-1.796831 c 0.42973,-0.140937 0.90273,-0.02586 1.21944,0.297142 0.3167,0.323007 0.42279,0.797556 0.27314,1.224318 l -1.90603,5.440534 3.4034,4.653726 c 0.26706,0.365132 0.30356,0.849998 0.0941,1.250898 -0.20949,0.400753 -0.63072,0.647991 -1.08082,0.637954 l -5.76631,-0.131041 -3.37695,4.672804 c -0.22604,0.312546 -0.58631,0.492644 -0.96398,0.492644 z m -5.26544,-9.658015 3.79252,1.219508 c 0.37244,0.119735 0.66213,0.41504 0.77445,0.789643 l 1.14474,3.813612 2.33263,-3.227678 c 0.22901,-0.316926 0.59975,-0.504228 0.99072,-0.492209 l 3.98292,0.09047 -2.35102,-3.214391 c -0.231,-0.315657 -0.29153,-0.724751 -0.16211,-1.093844 l 1.3169,-3.75792 -3.78547,1.241143 c -0.37172,0.12199 -0.77966,0.053 -1.091,-0.183914 l -3.16916,-2.412877 0.0113,3.981556 c 9.3e-4,0.391143 -0.19039,0.757688 -0.51204,0.980192 z"
       id="path6638"
       style="fill:none;fill-opacity:1;stroke:#fafafa;stroke-width:1.32291;stroke-dasharray:none;stroke-opacity:1" />
    <path
       d="m 492.62844,49.004709 c -0.37767,0 -0.7378,-0.180098 -0.96355,-0.492506 l -3.37695,-4.672794 -5.76631,0.131041 c -0.4484,0.01296 -0.87148,-0.236924 -1.08082,-0.637963 -0.20934,-0.40104 -0.17299,-0.885767 0.0939,-1.250898 l 3.40341,-4.65372 -1.9066,-5.440395 c -0.14951,-0.426762 -0.0436,-0.901455 0.27314,-1.224318 0.31671,-0.323012 0.78915,-0.438218 1.21944,-0.297142 l 5.48045,1.796831 4.58818,-3.493154 c 0.35998,-0.2741 0.84431,-0.320036 1.24956,-0.118743 0.40511,0.201299 0.66085,0.615057 0.65972,1.067412 l -0.0162,5.764106 4.74208,3.281396 c 0.37202,0.257415 0.56551,0.703548 0.49918,1.150959 -0.0662,0.447403 -0.38107,0.81833 -0.81192,0.956723 l -5.49064,1.765589 -1.65736,5.521116 c -0.12999,0.433262 -0.49492,0.755003 -0.94105,0.830209 -0.0658,0.01093 -0.13211,0.0162 -0.1976,0.0162 z m -3.74274,-7.555426 c 0.38121,0 0.73978,0.182783 0.9637,0.492496 l 2.33263,3.227678 1.14475,-3.813612 c 0.11245,-0.374603 0.40214,-0.669908 0.77444,-0.789643 l 3.79253,-1.219508 -3.27554,-2.266713 c -0.32165,-0.222504 -0.51303,-0.589049 -0.51205,-0.980192 l 0.0113,-3.981556 -3.16917,2.412877 c -0.31119,0.236924 -0.71912,0.305765 -1.09099,0.183914 l -3.78546,-1.241143 1.31689,3.75792 c 0.12928,0.369093 0.0686,0.778048 -0.16211,1.093844 l -2.35102,3.214391 3.98292,-0.09047 c 0.009,-2.87e-4 0.0182,-2.87e-4 0.0271,-2.87e-4 z"
       id="path6640"
       style="fill:none;fill-opacity:1;stroke:#fafafa;stroke-width:1.32291;stroke-dasharray:none;stroke-opacity:1" />
    <path
       style="fill:none;fill-opacity:1;stroke:#fafafa;stroke-width:1.32291;stroke-dasharray:none;stroke-opacity:1"
       d="m 469.74608,76.885341 c -0.0409,0 -0.082,-0.0019 -0.12363,-0.0065 -0.65306,-0.06741 -1.12777,-0.651242 -1.06029,-1.303909 0.93794,-9.069248 5.3206,-15.975126 8.83193,-20.171258 3.79848,-4.539365 7.34829,-6.924815 7.49751,-7.024049 0.54628,-0.363437 1.28451,-0.215719 1.6483,0.3305 0.36381,0.546211 0.21587,1.283686 -0.3307,1.647271 -0.0713,0.04806 -3.47922,2.356893 -7.04176,6.630787 -3.27751,3.931791 -7.36751,10.390546 -8.24039,18.831015 -0.0631,0.61125 -0.57939,1.066004 -1.18097,1.066004 z"
       id="path6642" />
    <path
       style="fill:none;fill-opacity:1;stroke:#fafafa;stroke-width:1.32291;stroke-dasharray:none;stroke-opacity:1"
       d="m 461.31147,76.885341 c -0.60173,0 -1.11773,-0.454763 -1.18111,-1.065864 -1.67885,-16.234236 -15.14636,-25.371476 -15.28229,-25.461951 -0.54656,-0.363724 -0.69452,-1.101199 -0.33071,-1.647271 0.36394,-0.54621 1.10189,-0.694075 1.6483,-0.3305 0.14937,0.09937 3.69904,2.484832 7.49752,7.024049 3.51133,4.196141 7.89413,11.102011 8.83193,20.171258 0.0675,0.652667 -0.40723,1.23649 -1.0603,1.303918 -0.041,0.0046 -0.0825,0.0065 -0.12334,0.0065 z"
       id="path6644" />
    <g
       id="g6650"
       transform="matrix(0.14144912,0,0,0.14136028,429.31766,7.0209891)"
       style="fill:none;fill-opacity:1;stroke:#fafafa;stroke-width:9.35554;stroke-dasharray:none;stroke-opacity:1">
	<path
   style="fill:none;fill-opacity:1;stroke:#fafafa;stroke-width:9.35554;stroke-dasharray:none;stroke-opacity:1"
   d="m 256.001,442.077 c -4.642,0 -8.404,-3.763 -8.404,-8.404 V 215.138 c 0,-4.641 3.763,-8.404 8.404,-8.404 4.641,0 8.404,3.763 8.404,8.404 v 218.536 c 0,4.641 -3.763,8.403 -8.404,8.403 z"
   id="path6646" />

	<circle
   style="fill:none;fill-opacity:1;stroke:#fafafa;stroke-width:9.35554;stroke-dasharray:none;stroke-opacity:1"
   cx="449.168"
   cy="119.287"
   r="8.4040003"
   id="circle6648" />

</g>
    <ellipse
       style="fill:none;fill-opacity:1;stroke:#fafafa;stroke-width:1.32291;stroke-dasharray:none;stroke-opacity:1"
       cx="473.45404"
       cy="48.591801"
       id="circle6652"
       rx="1.1887383"
       ry="1.1879919" />
    <ellipse
       style="fill:none;fill-opacity:1;stroke:#fafafa;stroke-width:1.32291;stroke-dasharray:none;stroke-opacity:1"
       cx="456.96942"
       cy="39.966564"
       id="circle6654"
       rx="1.1887383"
       ry="1.1879919" />
  </g>
</svg>
